<svg id="Layer_1" data-name="Layer 1" width="20" height="20" xmlns="http://www.w3.org/2000/svg" viewBox="0 0 17 20"><defs><style>.cls-1{fill:#fff;}</style></defs><title>availability</title><path class="cls-1" d="M16.54,6.25H.46A.46.46,0,0,1,0,5.78V4.38A1.85,1.85,0,0,1,1.82,2.5H3.64v-2A.47.47,0,0,1,4.1,0H5.62a.46.46,0,0,1,.45.47v2h4.86v-2A.46.46,0,0,1,11.38,0H12.9a.47.47,0,0,1,.46.47v2h1.82A1.85,1.85,0,0,1,17,4.38v1.4A.46.46,0,0,1,16.54,6.25ZM.46,7.5H16.54A.46.46,0,0,1,17,8V18.12A1.85,1.85,0,0,1,15.18,20H1.82A1.85,1.85,0,0,1,0,18.12V8A.46.46,0,0,1,.46,7.5ZM13.1,11.25,12,10.14a.43.43,0,0,0-.64,0l-4,4.1L5.62,12.43a.45.45,0,0,0-.64,0L3.9,13.53a.47.47,0,0,0,0,.66L7,17.45a.46.46,0,0,0,.65,0l5.42-5.54A.47.47,0,0,0,13.1,11.25Z"/></svg>