<svg id="Layer_1" width="20" height="20" data-name="Layer 1" xmlns="http://www.w3.org/2000/svg" viewBox="0 0 100.85 62.79"><defs><style>.cls-1{fill:#fff;}</style></defs><title>homie-visual-logo</title><path class="cls-1" d="M40.86,19.4V1.9A10.12,10.12,0,0,1,41,.83c.06-.6.4-.83,1-.83H59c.74,0,1,.29,1,1.1V19.45c1.39-.71,2.7-1.37,4-2.05l4.34-2.33c2.32-1.24,4.63-2.5,7-3.69a4.51,4.51,0,0,1,1.87-.45c3,0,6,0,9,0,.83,0,1.08.26,1.08,1.09,0,.24,0,.49,0,.73,0,.67-.33,1-1,1H80.46c-1,0-1.29.25-1.29,1.28V34.21c0,.94.23,1.17,1.15,1.17h11c1,0,1.3-.27,1.3-1.28V23c0-.82-.27-1.09-1.08-1.09-1,0-2,.06-3,0-.46,0-1.18-.26-1.27-.55a4.25,4.25,0,0,1,.07-2c0-.19.61-.36.94-.36,3.83,0,7.67,0,11.5,0,.7,0,1,.33,1,1,.07,1.72-.1,1.89-1.81,1.89-.89,0-1.77,0-2.66,0-.67,0-.88.38-1,.93a2.14,2.14,0,0,0,0,.44v26.9c0,1.17.36,1.54,1.51,1.54h3c.64,0,.92.28.93.92,0,1.75,0,1.86-1.81,1.86H88.41c-.47,0-1,0-1.12-.55a5.73,5.73,0,0,1,.07-1.89c0-.15.47-.32.72-.33,1.06,0,2.11,0,3.17,0s1.35-.27,1.35-1.32v-11c0-1-.27-1.29-1.31-1.29H9.7c-1,0-1.3.28-1.3,1.3v11c0,1,.27,1.29,1.3,1.3s2.16,0,3.24,0a1,1,0,0,1,.79.55,3.45,3.45,0,0,1,0,1.63,1.12,1.12,0,0,1-.88.55c-3.93,0-7.86,0-11.79,0a1,1,0,0,1-1-1,3.24,3.24,0,0,1,0-.88,1,1,0,0,1,1-.9H4.23c1,0,1.39-.41,1.39-1.43V23.2c0-1-.26-1.25-1.24-1.25H1.5C.36,21.94,0,21.57,0,20.38,0,19.4.43,19,1.47,19H12.38a1.41,1.41,0,0,1,1.3,2.31,1.73,1.73,0,0,1-1.2.59c-1,.09-2,0-3,0-.78,0-1.05.27-1.05,1.05q0,5.61,0,11.2c0,.89.29,1.18,1.17,1.18H20.63c1,0,1.21-.22,1.21-1.19V15c0-1.12-.23-1.34-1.38-1.34h-5.6c-.9,0-1.12-.23-1.13-1.12v-.81a.76.76,0,0,1,.81-.84c3.19,0,6.39,0,9.58,0a3.18,3.18,0,0,1,1.29.4c3.7,1.9,7.38,3.82,11.07,5.74ZM60,35.31a1.07,1.07,0,0,0,.23.06h15.1c.63,0,.9-.37.9-1V15.16c0-.72-.14-.81-.82-.46-1,.53-2.06,1.07-3.09,1.61l-8.27,4.34c-4.13,2.16-8.27,4.31-12.38,6.5a2.27,2.27,0,0,1-2.38,0c-1.69-.93-3.41-1.8-5.12-2.7-2.7-1.41-5.38-2.84-8.08-4.26L25.63,14.72c-.81-.42-.86-.38-.86.56V34.22c0,.93.23,1.16,1.16,1.16H40.09c.23,0,.47,0,.85,0V25.56c.86.46,1.55.85,2.27,1.19a.94.94,0,0,1,.59,1c0,2.29,0,4.57,0,6.86v.74H57.22c0-2.56,0-5.07,0-7.57,0-.27.07-.66.25-.77.78-.5,1.62-.92,2.53-1.41ZM57.22,12.15v-8c0-1.07-.26-1.33-1.33-1.34H45.06c-.92,0-1.27.27-1.27,1q0,8.34,0,16.66a.91.91,0,0,0,.41.65c1.76,1,3.54,1.88,5.3,2.83a1.93,1.93,0,0,0,2,0c1.7-.91,3.4-1.83,5.13-2.7a.92.92,0,0,0,.62-1C57.21,17.56,57.22,14.85,57.22,12.15Z"/><path class="cls-1" d="M43.79,40.93V43c0,5.23,0,10.46,0,15.69,0,.92.23,1.16,1.17,1.16H56.09c.88,0,1.13-.25,1.13-1.12V40.88H60V61.41c0,1.14-.18,1.34-1.35,1.37-.71,0-1.42,0-2.13,0H42.81c-1.73,0-2-.22-2-2q0-9.44,0-18.86c0-1.1,0-1.1,1.09-1.1h1.62A1.25,1.25,0,0,1,43.79,40.93Z"/><path class="cls-1" d="M21.84,40.86h2.93V58.6c0,1.07.19,1.26,1.29,1.26h5.59c.94,0,1.22.28,1.23,1.21,0,1.44-.27,1.71-1.75,1.71H15.37c-1.5,0-2.24-1.07-1.58-2.39a1.46,1.46,0,0,1,1.1-.51c1.94-.05,3.88,0,5.82,0,.88,0,1.13-.26,1.13-1.13V40.86Z"/><path class="cls-1" d="M76.24,40.84c.83,0,1.54,0,2.25,0,.48,0,.66.2.67.64,0,.17,0,.34,0,.51V58.49c0,1.24.13,1.37,1.4,1.37H86.1c.88,0,1.17.29,1.17,1.18,0,1.45-.27,1.74-1.72,1.74H70a6.36,6.36,0,0,1-1.14-.15.83.83,0,0,1-.73-.92c0-1.75,0-1.85,1.82-1.85H75c1,0,1.21-.23,1.21-1.2V40.84Z"/></svg>