<svg id="Layer_1" width="20" height="20" data-name="Layer 1" xmlns="http://www.w3.org/2000/svg" viewBox="0 0 503.97 384.06"><defs><style>.cls-1{fill:#fff;}</style></defs><title>log-out</title><path class="cls-1" d="M497,209,329,377c-15,15-41,4.5-41-17V264H152a23.94,23.94,0,0,1-24-24V144a23.94,23.94,0,0,1,24-24H288V24c0-21.4,25.9-32,41-17L497,175A24.2,24.2,0,0,1,497,209ZM192,372V332a12,12,0,0,0-12-12H96a32,32,0,0,1-32-32V96A32,32,0,0,1,96,64h84a12,12,0,0,0,12-12V12A12,12,0,0,0,180,0H96A96,96,0,0,0,0,96V288a96,96,0,0,0,96,96h84A12,12,0,0,0,192,372Z"/></svg>