<svg id="Layer_1" width="20" height="20" data-name="Layer 1" xmlns="http://www.w3.org/2000/svg" viewBox="0 0 18 20"><defs><style>.cls-1{fill:#fff;}</style></defs><title>roster-icon</title><path class="cls-1" d="M0,18.12A1.9,1.9,0,0,0,1.93,20H16.07A1.9,1.9,0,0,0,18,18.12V7.5H0Zm12.86-7.65a.47.47,0,0,1,.48-.47H15a.48.48,0,0,1,.48.47V12a.48.48,0,0,1-.48.47H13.34a.47.47,0,0,1-.48-.47Zm0,5a.47.47,0,0,1,.48-.47H15a.48.48,0,0,1,.48.47V17a.48.48,0,0,1-.48.47H13.34a.47.47,0,0,1-.48-.47Zm-5.15-5A.48.48,0,0,1,8.2,10H9.8a.48.48,0,0,1,.49.47V12a.48.48,0,0,1-.49.47H8.2A.48.48,0,0,1,7.71,12Zm0,5A.48.48,0,0,1,8.2,15H9.8a.48.48,0,0,1,.49.47V17a.48.48,0,0,1-.49.47H8.2A.48.48,0,0,1,7.71,17Zm-5.14-5A.48.48,0,0,1,3.05,10H4.66a.47.47,0,0,1,.48.47V12a.47.47,0,0,1-.48.47H3.05A.48.48,0,0,1,2.57,12Zm0,5A.48.48,0,0,1,3.05,15H4.66a.47.47,0,0,1,.48.47V17a.47.47,0,0,1-.48.47H3.05A.48.48,0,0,1,2.57,17Zm13.5-13H14.14V.62A.63.63,0,0,0,13.5,0H12.21a.63.63,0,0,0-.64.62V2.5H6.43V.62A.63.63,0,0,0,5.79,0H4.5a.63.63,0,0,0-.64.62V2.5H1.93A1.9,1.9,0,0,0,0,4.38V6.25H18V4.38A1.9,1.9,0,0,0,16.07,2.5Z"/></svg>