<svg width="20" height="20" viewBox="0 0 20 21" fill="none" xmlns="http://www.w3.org/2000/svg">
<path d="M17.2128 0.515731L17.3676 3.91043C15.592 1.71872 12.9476 0.328125 9.9935 0.328125C5.26271 0.328125 1.32465 3.89337 0.48 8.60606C0.425817 8.90831 0.648172 9.1875 0.940911 9.1875H2.85701C3.07445 9.1875 3.2621 9.02992 3.31281 8.80774C4.03671 5.63587 6.75073 3.28125 9.9935 3.28125C12.3706 3.28125 14.4637 4.54683 15.697 6.47231L11.7335 6.27277C11.4663 6.25931 11.2427 6.4833 11.2427 6.76438V8.70897C11.2427 8.98078 11.4524 9.20116 11.7111 9.20116H19.5316C19.7903 9.20116 20 8.98078 20 8.70897V0.492188C20 0.220377 19.7903 0 19.5316 0H17.6808C17.4132 0 17.2 0.234979 17.2128 0.515731ZM9.9935 17.7188C7.61633 17.7188 5.52309 16.4531 4.28983 14.5275L8.26646 14.7273C8.53367 14.7407 8.75727 14.5167 8.75727 14.2357V12.2911C8.75727 12.0193 8.54753 11.7989 8.28883 11.7989H0.468445C0.209746 11.7989 0 12.0193 0 12.2911V20.5078C0 20.7796 0.209746 21 0.468445 21H2.31822C2.58613 21 2.79947 20.7644 2.78608 20.4832L2.62489 17.0964C4.40046 19.2842 7.04249 20.6719 9.9935 20.6719C14.7243 20.6719 18.6624 17.1066 19.507 12.3939C19.5612 12.0917 19.3388 11.8125 19.0461 11.8125H17.13C16.9126 11.8125 16.7249 11.9701 16.6742 12.1923C15.9503 15.3641 13.2363 17.7188 9.9935 17.7188Z" fill="white"/>
</svg>
