<svg width="154" height="93" viewBox="0 0 154 93" fill="none" xmlns="http://www.w3.org/2000/svg">
<mask id="path-1-inside-1" fill="white">
<path d="M62.254 28.7461V27.3903C62.254 19.2005 62.254 11.0107 62.254 2.82093C62.2943 2.28701 62.363 1.75548 62.4599 1.22847C62.5534 0.318494 63.0682 0 63.9573 0H89.9C91.0325 0 91.4162 0.41859 91.4162 1.62886V28.828C93.5313 27.7634 95.5247 26.7897 97.4994 25.7796C99.7175 24.6421 101.907 23.4774 104.116 22.3308C107.654 20.5109 111.182 18.6363 114.757 16.871C115.646 16.4463 116.621 16.2194 117.612 16.2067C122.179 16.1339 126.746 16.2067 131.313 16.2067C132.576 16.2067 132.96 16.5889 132.969 17.8082C132.969 18.1722 132.969 18.5362 132.969 18.9002C132.969 19.9012 132.473 20.338 131.463 20.3289H122.591C120.99 20.3289 120.616 20.6929 120.616 22.2125V50.713C120.616 52.1052 120.962 52.4601 122.366 52.4601H139.1C140.662 52.4601 141.084 52.0597 141.084 50.5583V34.1787C141.084 32.9593 140.672 32.5589 139.427 32.5589C137.93 32.5589 136.423 32.6408 134.935 32.5589C134.242 32.4952 133.138 32.1586 133.007 31.7309C132.803 30.766 132.838 29.7679 133.11 28.8189C133.175 28.5368 134.046 28.2821 134.542 28.2821C140.382 28.2457 146.222 28.2457 152.062 28.2821C153.138 28.2821 153.587 28.7643 153.634 29.8199C153.737 32.3587 153.484 32.6135 150.826 32.6135C149.479 32.6135 148.131 32.6135 146.783 32.6135C145.754 32.6135 145.435 33.1777 145.286 33.9876C145.262 34.2054 145.262 34.425 145.286 34.6428V74.4997C145.286 76.2378 145.829 76.7747 147.579 76.7747C149.114 76.7747 150.648 76.7747 152.183 76.7747C153.119 76.7747 153.578 77.1933 153.606 78.1396C153.662 80.7422 153.531 80.8696 150.798 80.8696H134.71C133.99 80.8696 133.129 80.8696 132.988 80.0597C132.876 79.1254 132.914 78.1799 133.101 77.257C133.101 77.0386 133.812 76.7838 134.205 76.7747C135.815 76.7201 137.424 76.7747 139.034 76.7747C140.644 76.7747 141.093 76.3834 141.093 74.8182V58.4387C141.093 56.9372 140.672 56.5459 139.1 56.5459H14.7765C13.2323 56.5459 12.8111 56.9554 12.8111 58.466V74.7363C12.8111 76.2469 13.2135 76.6473 14.7858 76.6655C16.3581 76.6837 18.0802 76.6109 19.718 76.6655C19.9715 76.6957 20.2137 76.7851 20.424 76.9261C20.6342 77.0672 20.8062 77.2556 20.9252 77.4754C21.1219 78.2709 21.1219 79.1004 20.9252 79.8959C20.7848 80.1276 20.589 80.323 20.3544 80.4656C20.1198 80.6081 19.8533 80.6936 19.5776 80.7149C13.5973 80.7695 7.60759 80.7149 1.61792 80.7149C1.41315 80.7262 1.20818 80.6962 1.01589 80.6269C0.823586 80.5575 0.648108 80.4503 0.500467 80.3119C0.352826 80.1734 0.23621 80.0068 0.157939 79.8225C0.0796686 79.6382 0.0414345 79.4401 0.0456356 79.2407C-0.0152119 78.8059 -0.0152119 78.3651 0.0456356 77.9303C0.0562638 77.7425 0.105412 77.5587 0.19019 77.3897C0.274967 77.2206 0.39366 77.0697 0.539287 76.946C0.684914 76.8222 0.854535 76.7279 1.03817 76.6688C1.2218 76.6097 1.41574 76.5869 1.60856 76.6018H6.43774C7.96323 76.6018 8.5622 76.0012 8.5622 74.4906V34.3698C8.5622 32.9047 8.15976 32.5498 6.69042 32.5498C5.22108 32.5498 3.77046 32.5498 2.31048 32.5498C0.569732 32.5498 0.0456341 31.9948 0.0549929 30.2385C0.0549929 28.7734 0.672678 28.2184 2.27304 28.2184H18.8757C21.0001 28.2184 22.0109 29.8654 20.8504 31.649C20.6142 31.908 20.3267 32.118 20.0051 32.2666C19.6834 32.4151 19.3343 32.4991 18.9786 32.5134C17.4531 32.6408 15.9089 32.5134 14.374 32.5589C13.1855 32.5589 12.7737 32.9593 12.7737 34.115C12.7737 39.6477 12.7737 45.1803 12.7737 50.713C12.7737 52.0233 13.2042 52.4601 14.5519 52.4601C19.3436 52.4601 24.1353 52.4601 28.9271 52.4601H31.3978C32.9046 52.4601 33.2696 52.1325 33.2696 50.6948V22.2489C33.2696 20.6019 32.9233 20.2743 31.1638 20.2743H22.6379C21.2809 20.2743 20.9346 19.9285 20.9252 18.609V17.426C20.907 17.2631 20.9258 17.0983 20.9803 16.9432C21.0348 16.7881 21.1236 16.6465 21.2405 16.5284C21.3575 16.4104 21.4997 16.3188 21.657 16.26C21.8144 16.2013 21.9831 16.1769 22.1513 16.1885C27.0179 16.1885 31.8845 16.1885 36.7511 16.1885C37.4627 16.2386 38.1536 16.4439 38.7726 16.7891C44.3879 19.61 50.0032 22.4461 55.6185 25.2973C57.7524 26.3984 59.9049 27.5359 62.254 28.7461ZM91.4255 52.2781C91.5416 52.3169 91.6605 52.3474 91.7812 52.3691C99.4554 52.3691 107.13 52.3691 114.804 52.3691C115.74 52.3691 116.17 51.8231 116.17 50.9132C116.17 41.413 116.17 31.9129 116.17 22.4127C116.17 21.348 115.955 21.2206 114.916 21.7393C113.344 22.5128 111.781 23.3227 110.237 24.1235L97.6304 30.5479C91.3413 33.751 85.0334 36.9177 78.7724 40.1754C78.2278 40.5015 77.6009 40.6742 76.9614 40.6742C76.3219 40.6742 75.695 40.5015 75.1505 40.1754C72.5768 38.7832 69.9469 37.5092 67.3358 36.1716C63.2086 34.0786 59.1187 31.9857 55.0102 29.8927C49.7069 27.1931 44.4035 24.4996 39.1001 21.8121C37.8648 21.1842 37.7899 21.2479 37.7899 22.6493V50.7039C37.7899 52.087 38.1362 52.4237 39.5681 52.4237H61.0935C61.4585 52.4237 61.8235 52.4237 62.3943 52.36V37.8732C63.7139 38.5466 64.7621 39.129 65.8478 39.6386C66.1481 39.7398 66.4043 39.9371 66.5743 40.1983C66.7443 40.4595 66.8181 40.769 66.7837 41.0763C66.7837 44.4614 66.7837 47.8374 66.7837 51.2225V52.3327H87.2515C87.2515 48.5381 87.2515 44.8254 87.2515 41.1127C87.2515 40.7214 87.3544 40.139 87.6258 39.9752C88.8238 39.2382 90.0872 38.6194 91.4723 37.8823L91.4255 52.2781ZM87.186 17.972V6.11504C87.186 4.53168 86.7929 4.14039 85.1551 4.13129C82.5346 4.13129 79.9141 4.13129 77.2937 4.13129C74.4111 4.13129 71.538 4.13129 68.6554 4.13129C67.261 4.13129 66.7275 4.54078 66.7275 5.66005C66.7275 13.8741 66.7275 22.0972 66.7275 30.3295C66.7507 30.5247 66.8181 30.7124 66.9249 30.8792C67.0317 31.046 67.1753 31.1877 67.3452 31.2941C70.0218 32.7227 72.7359 34.0786 75.4219 35.48C75.876 35.7437 76.395 35.8829 76.924 35.8829C77.4529 35.8829 77.972 35.7437 78.4261 35.48C81.0185 34.1241 83.6015 32.75 86.2314 31.4852C86.5357 31.3784 86.7939 31.1746 86.9638 30.9069C87.1338 30.6392 87.2055 30.3234 87.1672 30.011C87.1672 26.0162 87.186 22.0123 87.186 18.0084V17.972Z"/>
</mask>
<path d="M62.254 28.7461V27.3903C62.254 19.2005 62.254 11.0107 62.254 2.82093C62.2943 2.28701 62.363 1.75548 62.4599 1.22847C62.5534 0.318494 63.0682 0 63.9573 0H89.9C91.0325 0 91.4162 0.41859 91.4162 1.62886V28.828C93.5313 27.7634 95.5247 26.7897 97.4994 25.7796C99.7175 24.6421 101.907 23.4774 104.116 22.3308C107.654 20.5109 111.182 18.6363 114.757 16.871C115.646 16.4463 116.621 16.2194 117.612 16.2067C122.179 16.1339 126.746 16.2067 131.313 16.2067C132.576 16.2067 132.96 16.5889 132.969 17.8082C132.969 18.1722 132.969 18.5362 132.969 18.9002C132.969 19.9012 132.473 20.338 131.463 20.3289H122.591C120.99 20.3289 120.616 20.6929 120.616 22.2125V50.713C120.616 52.1052 120.962 52.4601 122.366 52.4601H139.1C140.662 52.4601 141.084 52.0597 141.084 50.5583V34.1787C141.084 32.9593 140.672 32.5589 139.427 32.5589C137.93 32.5589 136.423 32.6408 134.935 32.5589C134.242 32.4952 133.138 32.1586 133.007 31.7309C132.803 30.766 132.838 29.7679 133.11 28.8189C133.175 28.5368 134.046 28.2821 134.542 28.2821C140.382 28.2457 146.222 28.2457 152.062 28.2821C153.138 28.2821 153.587 28.7643 153.634 29.8199C153.737 32.3587 153.484 32.6135 150.826 32.6135C149.479 32.6135 148.131 32.6135 146.783 32.6135C145.754 32.6135 145.435 33.1777 145.286 33.9876C145.262 34.2054 145.262 34.425 145.286 34.6428V74.4997C145.286 76.2378 145.829 76.7747 147.579 76.7747C149.114 76.7747 150.648 76.7747 152.183 76.7747C153.119 76.7747 153.578 77.1933 153.606 78.1396C153.662 80.7422 153.531 80.8696 150.798 80.8696H134.71C133.99 80.8696 133.129 80.8696 132.988 80.0597C132.876 79.1254 132.914 78.1799 133.101 77.257C133.101 77.0386 133.812 76.7838 134.205 76.7747C135.815 76.7201 137.424 76.7747 139.034 76.7747C140.644 76.7747 141.093 76.3834 141.093 74.8182V58.4387C141.093 56.9372 140.672 56.5459 139.1 56.5459H14.7765C13.2323 56.5459 12.8111 56.9554 12.8111 58.466V74.7363C12.8111 76.2469 13.2135 76.6473 14.7858 76.6655C16.3581 76.6837 18.0802 76.6109 19.718 76.6655C19.9715 76.6957 20.2137 76.7851 20.424 76.9261C20.6342 77.0672 20.8062 77.2556 20.9252 77.4754C21.1219 78.2709 21.1219 79.1004 20.9252 79.8959C20.7848 80.1276 20.589 80.323 20.3544 80.4656C20.1198 80.6081 19.8533 80.6936 19.5776 80.7149C13.5973 80.7695 7.60759 80.7149 1.61792 80.7149C1.41315 80.7262 1.20818 80.6962 1.01589 80.6269C0.823586 80.5575 0.648108 80.4503 0.500467 80.3119C0.352826 80.1734 0.23621 80.0068 0.157939 79.8225C0.0796686 79.6382 0.0414345 79.4401 0.0456356 79.2407C-0.0152119 78.8059 -0.0152119 78.3651 0.0456356 77.9303C0.0562638 77.7425 0.105412 77.5587 0.19019 77.3897C0.274967 77.2206 0.39366 77.0697 0.539287 76.946C0.684914 76.8222 0.854535 76.7279 1.03817 76.6688C1.2218 76.6097 1.41574 76.5869 1.60856 76.6018H6.43774C7.96323 76.6018 8.5622 76.0012 8.5622 74.4906V34.3698C8.5622 32.9047 8.15976 32.5498 6.69042 32.5498C5.22108 32.5498 3.77046 32.5498 2.31048 32.5498C0.569732 32.5498 0.0456341 31.9948 0.0549929 30.2385C0.0549929 28.7734 0.672678 28.2184 2.27304 28.2184H18.8757C21.0001 28.2184 22.0109 29.8654 20.8504 31.649C20.6142 31.908 20.3267 32.118 20.0051 32.2666C19.6834 32.4151 19.3343 32.4991 18.9786 32.5134C17.4531 32.6408 15.9089 32.5134 14.374 32.5589C13.1855 32.5589 12.7737 32.9593 12.7737 34.115C12.7737 39.6477 12.7737 45.1803 12.7737 50.713C12.7737 52.0233 13.2042 52.4601 14.5519 52.4601C19.3436 52.4601 24.1353 52.4601 28.9271 52.4601H31.3978C32.9046 52.4601 33.2696 52.1325 33.2696 50.6948V22.2489C33.2696 20.6019 32.9233 20.2743 31.1638 20.2743H22.6379C21.2809 20.2743 20.9346 19.9285 20.9252 18.609V17.426C20.907 17.2631 20.9258 17.0983 20.9803 16.9432C21.0348 16.7881 21.1236 16.6465 21.2405 16.5284C21.3575 16.4104 21.4997 16.3188 21.657 16.26C21.8144 16.2013 21.9831 16.1769 22.1513 16.1885C27.0179 16.1885 31.8845 16.1885 36.7511 16.1885C37.4627 16.2386 38.1536 16.4439 38.7726 16.7891C44.3879 19.61 50.0032 22.4461 55.6185 25.2973C57.7524 26.3984 59.9049 27.5359 62.254 28.7461ZM91.4255 52.2781C91.5416 52.3169 91.6605 52.3474 91.7812 52.3691C99.4554 52.3691 107.13 52.3691 114.804 52.3691C115.74 52.3691 116.17 51.8231 116.17 50.9132C116.17 41.413 116.17 31.9129 116.17 22.4127C116.17 21.348 115.955 21.2206 114.916 21.7393C113.344 22.5128 111.781 23.3227 110.237 24.1235L97.6304 30.5479C91.3413 33.751 85.0334 36.9177 78.7724 40.1754C78.2278 40.5015 77.6009 40.6742 76.9614 40.6742C76.3219 40.6742 75.695 40.5015 75.1505 40.1754C72.5768 38.7832 69.9469 37.5092 67.3358 36.1716C63.2086 34.0786 59.1187 31.9857 55.0102 29.8927C49.7069 27.1931 44.4035 24.4996 39.1001 21.8121C37.8648 21.1842 37.7899 21.2479 37.7899 22.6493V50.7039C37.7899 52.087 38.1362 52.4237 39.5681 52.4237H61.0935C61.4585 52.4237 61.8235 52.4237 62.3943 52.36V37.8732C63.7139 38.5466 64.7621 39.129 65.8478 39.6386C66.1481 39.7398 66.4043 39.9371 66.5743 40.1983C66.7443 40.4595 66.8181 40.769 66.7837 41.0763C66.7837 44.4614 66.7837 47.8374 66.7837 51.2225V52.3327H87.2515C87.2515 48.5381 87.2515 44.8254 87.2515 41.1127C87.2515 40.7214 87.3544 40.139 87.6258 39.9752C88.8238 39.2382 90.0872 38.6194 91.4723 37.8823L91.4255 52.2781ZM87.186 17.972V6.11504C87.186 4.53168 86.7929 4.14039 85.1551 4.13129C82.5346 4.13129 79.9141 4.13129 77.2937 4.13129C74.4111 4.13129 71.538 4.13129 68.6554 4.13129C67.261 4.13129 66.7275 4.54078 66.7275 5.66005C66.7275 13.8741 66.7275 22.0972 66.7275 30.3295C66.7507 30.5247 66.8181 30.7124 66.9249 30.8792C67.0317 31.046 67.1753 31.1877 67.3452 31.2941C70.0218 32.7227 72.7359 34.0786 75.4219 35.48C75.876 35.7437 76.395 35.8829 76.924 35.8829C77.4529 35.8829 77.972 35.7437 78.4261 35.48C81.0185 34.1241 83.6015 32.75 86.2314 31.4852C86.5357 31.3784 86.7939 31.1746 86.9638 30.9069C87.1338 30.6392 87.2055 30.3234 87.1672 30.011C87.1672 26.0162 87.186 22.0123 87.186 18.0084V17.972Z" fill="white" stroke="white" stroke-width="2" mask="url(#path-1-inside-1)"/>
<path d="M87.3638 86.6692V59.1982H90.4787V90.8644C90.4787 91.3038 90.4612 91.6181 90.4177 91.8501C90.375 92.0779 90.3147 92.1831 90.2604 92.2415C90.2081 92.2978 90.115 92.3606 89.9055 92.4101C89.6905 92.461 89.3942 92.4885 88.9733 92.5004H88.968H88.9619H88.9558H88.9497H88.9436H88.9374H88.9313H88.9252H88.9191H88.9129H88.9068H88.9007H88.8946H88.8884H88.8823H88.8762H88.8701H88.8639H88.8578H88.8517H88.8456H88.8394H88.8333H88.8272H88.8211H88.8149H88.8088H88.8027H88.7966H88.7904H88.7843H88.7782H88.7721H88.7659H88.7598H88.7537H88.7475H88.7414H88.7353H88.7292H88.723H88.7169H88.7108H88.7046H88.6985H88.6924H88.6863H88.6801H88.674H88.6679H88.6617H88.6556H88.6495H88.6433H88.6372H88.6311H88.6249H88.6188H88.6127H88.6065H88.6004H88.5943H88.5881H88.582H88.5759H88.5697H88.5636H88.5575H88.5513H88.5452H88.5391H88.5329H88.5268H88.5207H88.5145H88.5084H88.5023H88.4961H88.49H88.4839H88.4777H88.4716H88.4654H88.4593H88.4532H88.447H88.4409H88.4348H88.4286H88.4225H88.4163H88.4102H88.4041H88.3979H88.3918H88.3857H88.3795H88.3734H88.3672H88.3611H88.355H88.3488H88.3427H88.3365H88.3304H88.3243H88.3181H88.312H88.3058H88.2997H88.2935H88.2874H88.2813H88.2751H88.269H88.2628H88.2567H88.2506H88.2444H88.2383H88.2321H88.226H88.2198H88.2137H88.2076H88.2014H88.1953H88.1891H88.183H88.1768H88.1707H88.1645H88.1584H88.1523H88.1461H88.14H88.1338H88.1277H88.1215H88.1154H88.1092H88.1031H88.0969H88.0908H88.0846H88.0785H88.0724H88.0662H88.0601H88.0539H88.0478H88.0416H88.0355H88.0293H88.0232H88.017H88.0109H88.0047H87.9986H87.9924H87.9863H87.9801H87.974H87.9678H87.9617H87.9555H87.9494H87.9432H87.9371H87.9309H87.9248H87.9186H87.9125H87.9063H87.9002H87.894H87.8879H87.8817H87.8756H87.8694H87.8633H87.8571H87.851H87.8448H87.8387H87.8325H87.8264H87.8202H87.814H87.8079H87.8017H87.7956H87.7894H87.7833H87.7771H87.771H87.7648H87.7587H87.7525H87.7464H87.7402H87.734H87.7279H87.7217H87.7156H87.7094H87.7033H87.6971H87.691H87.6848H87.6787H87.6725H87.6663H87.6602H87.654H87.6479H87.6417H87.6356H87.6294H87.6232H87.6171H87.6109H87.6048H87.5986H87.5925H87.5863H87.5801H87.574H87.5678H87.5617H87.5555H87.5494H87.5432H87.537H87.5309H87.5247H87.5186H87.5124H87.5062H87.5001H87.4939H87.4878H87.4816H87.4755H87.4693H87.4631H87.457H87.4508H87.4447H87.4385H87.4323H87.4262H87.42H87.4139H87.4077H87.4015H87.3954H87.3892H87.383H87.3769H87.3707H87.3646H87.3584H87.3522H87.3461H87.3399H87.3338H87.3276H87.3214H87.3153H87.3091H87.3029H87.2968H87.2906H87.2845H87.2783H87.2721H87.266H87.2598H87.2536H87.2475H87.2413H87.2352H87.229H87.2228H87.2167H87.2105H87.2043H87.1982H87.192H87.1858H87.1797H87.1735H87.1673H87.1612H87.155H87.1489H87.1427H87.1365H87.1304H87.1242H87.118H87.1119H87.1057H87.0995H87.0934H87.0872H87.081H87.0749H87.0687H87.0625H87.0564H87.0502H87.044H87.0379H87.0317H87.0255H87.0194H87.0132H87.007H87.0009H86.9947H86.9885H86.9824H86.9762H86.97H86.9639H86.9577H86.9515H86.9454H86.9392H86.933H86.9269H86.9207H86.9145H86.9084H86.9022H86.896H86.8899H86.8837H86.8775H86.8714H86.8652H86.859H86.8529H86.8467H86.8405H86.8344H86.8282H86.822H86.8158H86.8097H86.8035H86.7973H86.7912H86.785H86.7788H86.7727H86.7665H86.7603H86.7542H86.748H86.7418H86.7356H86.7295H86.7233H86.7171H86.711H86.7048H86.6986H86.6925H86.6863H86.6801H86.6739H86.6678H86.6616H86.6554H86.6493H86.6431H86.6369H86.6308H86.6246H86.6184H86.6122H86.6061H86.5999H86.5937H86.5876H86.5814H86.5752H86.569H86.5629H86.5567H86.5505H86.5444H86.5382H86.532H86.5258H86.5197H86.5135H86.5073H86.5012H86.495H86.4888H86.4826H86.4765H86.4703H86.4641H86.458H86.4518H86.4456H86.4394H86.4333H86.4271H86.4209H86.4148H86.4086H86.4024H86.3962H86.3901H86.3839H86.3777H86.3715H86.3654H86.3592H86.353H86.3469H86.3407H86.3345H86.3283H86.3222H86.316H86.3098H86.3037H86.2975H86.2913H86.2851H86.279H86.2728H86.2666H86.2604H86.2543H86.2481H86.2419H86.2358H86.2296H86.2234H86.2172H86.2111H86.2049H86.1987H86.1925H86.1864H86.1802H86.174H86.1678H86.1617H86.1555H86.1493H86.1432H86.137H86.1308H86.1246H86.1185H86.1123H86.1061H86.0999H86.0938H86.0876H86.0814H86.0752H86.0691H86.0629H86.0567H86.0505H86.0444H86.0382H86.032H86.0259H86.0197H86.0135H86.0073H86.0012H85.995H85.9888H85.9826H85.9765H85.9703H85.9641H85.9579H85.9518H85.9456H85.9394H85.9332H85.9271H85.9209H85.9147H85.9085H85.9024H85.8962H85.89H85.8839H85.8777H85.8715H85.8653H85.8592H85.853H85.8468H85.8406H85.8345H85.8283H85.7887H85.7491H85.7095H85.6699H85.6303H85.5907H85.5511H85.5115H85.4719H85.4323H85.3927H85.3531H85.3135H85.2739H85.2343H85.1947H85.1551H85.1155H85.0759H85.0363H84.9967H84.9571H84.9175H84.8779H84.8383H84.7987H84.7591H84.7195H84.6799H84.6403H84.6007H84.5611H84.5215H84.4819H84.4423H84.4027H84.3631H84.3235H84.2839H84.2443H84.2047H84.1651H84.1255H84.0859H84.0463H84.0068H83.9672H83.9276H83.888H83.8484H83.8088H83.7692H83.7296H83.69H83.6504H83.6108H83.5712H83.5316H83.492H83.4524H83.4128H83.3732H83.3336H83.294H83.2544H83.2148H83.1752H83.1356H83.096H83.0564H83.0168H82.9772H82.9376H82.898H82.8584H82.8188H82.7792H82.7396H82.7H82.6604H82.6208H82.5812H82.5416H82.502H82.4624H82.4228H82.3832H82.3436H82.304H82.2644H82.2248H82.1852H82.1456H82.106H82.0664H82.0268H81.9872H81.9476H81.908H81.8684H81.8288H81.7892H81.7496H81.71H81.6704H81.6308H81.5912H81.5516H81.512H81.4724H81.4328H81.3932H81.3536H81.314H81.2744H81.2348H81.1952H81.1557H81.1161H81.0765H81.0369H80.9973H80.9577H80.9181H80.8785H80.8389H80.7993H80.7597H80.7201H80.6805H80.6409H80.6013H80.5617H80.5221H80.4825H80.4429H80.4033H80.3637H80.3241H80.2845H80.2449H80.2053H80.1657H80.1261H80.0865H80.0469H80.0073H79.9677H79.9281H79.8885H79.8489H79.8093H79.7697H79.7301H79.6905H79.6509H79.6113H79.5717H79.5321H79.4925H79.4529H79.4133H79.3737H79.3341H79.2945H79.2549H79.2153H79.1757H79.1361H79.0965H79.0569H79.0173H78.9777H78.9381H78.8985H78.8589H78.8193H78.7797H78.7401H78.7005H78.6609H78.6213H78.5817H78.5421H78.5025H78.4629H78.4233H78.3837H78.3441H78.3046H78.265H78.2254H78.1858H78.1462H78.1066H78.067H78.0274H77.9878H77.9482H77.9086H77.869H77.8294H77.7898H77.7502H77.7106H77.671H77.6314H77.5918H77.5522H77.5126H77.473H77.4334H77.3938H77.3542H77.3146H77.275H77.2354H77.1958H77.1562H77.1166H77.077H77.0374H76.9978H76.9582H76.9186H76.879H76.8394H76.7998H76.7602H76.7206H76.681H76.6414H76.6018H76.5622H76.5226H76.483H76.4434H76.4038H76.3642H76.3246H76.285H76.2454H76.2058H76.1662H76.1266H76.087H76.0474H76.0078H75.9682H75.9286H75.889H75.8494H75.8098H75.7702H75.7306H75.691H75.6514H75.6118H75.5722H75.5326H75.4931H75.4535H75.4139H75.3743H75.3347H75.2951H75.2555H75.2159H75.1763H75.1367H75.0971H75.0575H75.0179H74.9783H74.9387H74.8991H74.8595H74.8199H74.7803H74.7407H74.7011H74.6615H74.6219H74.5823H74.5427H74.5031H74.4635H74.4239H74.3843H74.3447H74.3051H74.2655H74.2259H74.1863H74.1467H74.1071H74.0675H74.0279H73.9883H73.9487H73.9091H73.8695H73.8299H73.7903H73.7507H73.7111H73.6715H73.6319H73.5923H73.5527H73.5131H73.4735H73.4339H73.3943H73.3547H73.3151H73.2755H73.2359H73.1963H73.1567H73.1171H73.0775H73.0379H72.9983H72.9587H72.9191H72.8795H72.8399H72.8003H72.7607H72.7211H72.6815H72.642H72.6024H72.5628H72.5232H72.4836H72.444H72.4044H72.3648H72.3252H72.2856H72.246H72.2064H72.1668H72.1272H72.0876H72.048H72.0084H71.9688H71.9292H71.8896H71.85H71.8104H71.7708H71.7312H71.6916H71.652H71.6124H71.5728H71.5332H71.4936H71.454H71.4144H71.3748H71.3352H71.2956H71.256H71.2164H71.1768H71.1372H71.0976H71.058H71.0184H70.9788H70.9392H70.8996H70.86H70.8204H70.7808H70.7412H70.7016H70.662H70.6224H70.5828H70.5432H70.5036H70.464H70.4244H70.3848H70.3452H70.3056H70.266H70.2264H70.1868H70.1472H70.1076H70.068H70.0284H69.9888H69.9492H69.9096H69.87H69.8305H69.7909H69.7513H69.7117H69.6721H69.6325H69.5929H69.5533H69.5137H69.4741H69.4345H69.3949H69.3553H69.3157H69.2761H69.2365H69.1969H69.1573H69.1177H69.0781H69.0385H68.9989H68.9593H68.9197H68.8801H68.8405H68.8009H68.7613H68.7217H68.6821H68.6425H68.6029H68.5633H68.5237H68.4841H68.4445H68.4049H68.3653H68.3257H68.2861H68.2465H68.2069H68.1673H68.1277H68.0881H68.0485H68.0089H67.9693H67.9297H67.8901H67.8505H67.8109H67.7713H67.7317H67.6921H67.6525H67.6129H67.5733H67.5337H67.4941H67.4545H67.4149H67.3753H67.3357H67.2961H67.2565H67.2169H67.1773H67.1377H67.0981H67.0585H67.0189H66.9794H66.9398H66.9002H66.8606H66.821H66.7814H66.7418H66.7022H66.6626H66.623H66.5834H66.5438H66.5042H66.4646H66.425H66.3854H66.3458H66.3062H66.2666H66.227H66.1874H66.1478H66.1082H66.0686H66.029H65.9894H65.9498H65.9102H65.8706H65.831H65.7914H65.7518H65.7122H65.6726H65.633H65.5934H65.5538C64.9179 92.5004 64.4607 92.478 64.1221 92.4124C63.7908 92.3482 63.6248 92.2521 63.5229 92.1426C63.4168 92.0287 63.3211 91.8372 63.2584 91.4643C63.1953 91.0894 63.1743 90.5881 63.1743 89.9022V89.8444V89.7867V89.729V89.6712V89.6135V89.5558V89.498V89.4403V89.3826V89.3248V89.2671V89.2094V89.1517V89.0939V89.0362V88.9785V88.9207V88.863V88.8053V88.7475V88.6898V88.6321V88.5744V88.5166V88.4589V88.4012V88.3434V88.2857V88.228V88.1702V88.1125V88.0548V87.9971V87.9393V87.8816V87.8239V87.7661V87.7084V87.6507V87.593V87.5352V87.4775V87.4198V87.362V87.3043V87.2466V87.1889V87.1311V87.0734V87.0157V86.9579V86.9002V86.8425V86.7848V86.727V86.6693V86.6116V86.5538V86.4961V86.4384V86.3807V86.3229V86.2652V86.2075V86.1498V86.092V86.0343V85.9766V85.9188V85.8611V85.8034V85.7457V85.6879V85.6302V85.5725V85.5148V85.457V85.3993V85.3416V85.2839V85.2261V85.1684V85.1107V85.053V84.9952V84.9375V84.8798V84.8221V84.7643V84.7066V84.6489V84.5912V84.5334V84.4757V84.418V84.3603V84.3025V84.2448V84.1871V84.1294V84.0716V84.0139V83.9562V83.8985V83.8407V83.783V83.7253V83.6676V83.6098V83.5521V83.4944V83.4367V83.379V83.3212V83.2635V83.2058V83.1481V83.0903V83.0326V82.9749V82.9172V82.8594V82.8017V82.744V82.6863V82.6286V82.5708V82.5131V82.4554V82.3977V82.3399V82.2822V82.2245V82.1668V82.1091V82.0513V81.9936V81.9359V81.8782V81.8204V81.7627V81.705V81.6473V81.5896V81.5318V81.4741V81.4164V81.3587V81.301V81.2432V81.1855V81.1278V81.0701V81.0124V80.9546V80.8969V80.8392V80.7815V80.7238V80.666V80.6083V80.5506V80.4929V80.4352V80.3774V80.3197V80.262V80.2043V80.1466V80.0888V80.0311V79.9734V79.9157V79.858V79.8002V79.7425V79.6848V79.6271V79.5694V79.5117V79.4539V79.3962V79.3385V79.2808V79.2231V79.1653V79.1076V79.0499V78.9922V78.9345V78.8768V78.819V78.7613V78.7036V78.6459V78.5882V78.5305V78.4727V78.415V78.3573V78.2996V78.2419V78.1842V78.1264V78.0687V78.011V77.9533V77.8956V77.8379V77.7801V77.7224V77.6647V77.607V77.5493V77.4916V77.4338V77.3761V77.3184V77.2607V77.203V77.1453V77.0875V77.0298V76.9721V76.9144V76.8567V76.799V76.7413V76.6835V76.6258V76.5681V76.5104V76.4527V76.395V76.3373V76.2795V76.2218V76.1641V76.1064V76.0487V75.991V75.9333V75.8755V75.8178V75.7601V75.7024V75.6447V75.587V75.5293V75.4715V75.4138V75.3561V75.2984V75.2407V75.183V75.1253V75.0676V75.0098V74.9521V74.8944V74.8367V74.779V74.7213V74.6636V74.6059V74.5481V74.4904V74.4327V74.375V74.3173V74.2596V74.2019V74.1442V74.0864V74.0287V73.971V73.9133V73.8556V73.7979V73.7402V73.6825V73.6248V73.567V73.5093V73.4516V73.3939V73.3362V73.2785V73.2208V73.1631V73.1054V73.0477V72.9899V72.9322V72.8745V72.8168V72.7591V72.7014V72.6437V72.586V72.5283V72.4706V72.4128V72.3551V72.2974V72.2397V72.182V72.1243V72.0666V72.0089V71.9512V71.8935V71.8358V71.778V71.7203V71.6626V71.6049V71.5472V71.4895V71.4318V71.3741V71.3164V71.2587V71.201V71.1433V71.0855V71.0278V70.9701V70.9124V70.8547V70.797V70.7393V70.6816V70.6239V70.5662V70.5085V70.4508V70.3931V70.3354V70.2776V70.2199V70.1622V70.1045V70.0468V69.9891V69.9314V69.8737V69.816V69.7583V69.7006V69.6429V69.5852V69.5275V69.4698V69.4121V69.3544V69.2966V69.2389V69.1812V69.1235V69.0658V69.0081V68.9504V68.8927V68.835V68.7773V68.7196V68.6619V68.6042V68.5465V68.4888V68.4311V68.3734V68.3157V68.258V68.2003V68.1426V68.0848V68.0271V67.9694V67.9117V67.854V67.7963V67.7386V67.6809V67.6232V67.5655V67.5078V67.4501V67.3924V67.3347V67.277V67.2193V67.1616V67.1039V67.0462V66.9885V66.9308V66.8731V66.8154V66.7577V66.7V66.6423V66.5846V66.5269V66.4692V66.4115V66.3538V66.2961V66.2384V66.1807V66.123V66.0653V66.0076V65.9499V65.8922V65.8345V65.7768V65.7191V65.6614V65.6037V65.5459V65.4882V65.4305V65.3728V65.3151V65.2574V65.1997V65.142V65.0843V65.0266V64.9689V64.9112V64.8535V64.7958V64.7381V64.6804V64.6227V64.565V64.5073V64.4497V64.392V64.3343V64.2766V64.2189V64.1612V64.1035V64.0458V63.9881V63.9304V63.8727V63.815V63.7573V63.6996V63.6419V63.5842V63.5265V63.4688V63.4111V63.3534V63.2957V63.238V63.1803V63.1226V63.0649V63.0072V62.9495V62.8918V62.8341V62.7764V62.7187V62.661V62.6033V62.5456V62.4879V62.4302V62.3725V62.3148V62.2571V62.1994V62.1417V62.084V62.0263V61.9686V61.911V61.8533V61.7956V61.7379V61.6802V61.6225V61.5648V61.5071V61.4494V61.3917V61.334V61.2763V61.2186V61.1609V61.1032V61.0455V60.9878V60.9301V60.8724V60.8147V60.757V60.6994V60.6417V60.584V60.5263V60.4686V60.4109V60.3532C63.1743 59.9112 63.175 59.6193 63.1968 59.4091C63.2114 59.2683 63.2321 59.2098 63.2406 59.1907C63.2587 59.1829 63.3066 59.1668 63.4117 59.1543C63.6012 59.1317 63.8671 59.1309 64.2821 59.1309H66.4981V86.6211C66.4981 87.3324 66.5716 87.9757 66.9839 88.4048C67.4027 88.8407 68.0381 88.9204 68.733 88.9204H85.1924C85.8576 88.9204 86.4679 88.8282 86.8773 88.3984C87.2792 87.9765 87.3638 87.3555 87.3638 86.6692ZM63.2314 59.1954C63.2314 59.1954 63.2319 59.195 63.2331 59.1943C63.2321 59.1951 63.2315 59.1954 63.2314 59.1954Z" fill="white" stroke="white"/>
<path d="M34.8764 86.6955V59.1309H38.1656V86.4264C38.1656 86.8536 38.1827 87.2266 38.2435 87.5393C38.3052 87.8562 38.4195 88.1529 38.6454 88.3884C38.8733 88.626 39.1643 88.7486 39.4766 88.8146C39.7822 88.8791 40.1443 88.8967 40.554 88.8967H48.7457C49.4059 88.8967 49.6665 89.011 49.7937 89.1458C49.9299 89.2902 50.0441 89.5932 50.0441 90.3189C50.0441 90.8733 50.0191 91.2821 49.958 91.5892C49.8978 91.8921 49.8099 92.0565 49.7129 92.1587C49.618 92.2585 49.4681 92.3475 49.1879 92.4095C48.9007 92.4731 48.5138 92.5004 47.9814 92.5004H24.9078C23.9367 92.5004 23.3006 92.1332 22.9892 91.6359C22.6839 91.1481 22.6181 90.4184 23.0236 89.5208C23.1716 89.3484 23.3484 89.2109 23.5427 89.1145C23.7534 89.0101 23.9808 88.956 24.2101 88.9543L24.2101 88.9544L24.22 88.9542C26.1057 88.9031 27.9839 88.9201 29.8725 88.9372C30.8219 88.9457 31.774 88.9543 32.7309 88.9543C33.3864 88.9543 33.992 88.8618 34.3976 88.4283C34.7929 88.0058 34.8764 87.3848 34.8764 86.6955Z" fill="white" stroke="white"/>
<path d="M104.32 92.2825L104.293 92.2762L104.266 92.2729C104.082 92.251 103.905 92.1516 103.78 91.9852C103.654 91.8179 103.592 91.599 103.615 91.3773L103.618 91.3466L103.617 91.3158C103.604 90.6213 103.603 90.1308 103.644 89.7701C103.685 89.4078 103.761 89.264 103.828 89.1929C103.892 89.125 104.021 89.0466 104.361 88.9972C104.703 88.9477 105.171 88.9383 105.841 88.9383H113.357C114.076 88.9383 114.733 88.8658 115.166 88.4257C115.596 87.989 115.673 87.3232 115.673 86.5712V59.1309H115.679H115.686H115.693H115.699H115.706H115.713H115.72H115.727H115.734H115.741H115.747H115.754H115.761H115.768H115.775H115.782H115.789H115.795H115.802H115.809H115.816H115.823H115.829H115.836H115.843H115.85H115.857H115.863H115.87H115.877H115.884H115.891H115.897H115.904H115.911H115.918H115.925H115.931H115.938H115.945H115.952H115.958H115.965H115.972H115.979H115.985H115.992H115.999H116.006H116.012H116.019H116.026H116.033H116.039H116.046H116.053H116.059H116.066H116.073H116.08H116.086H116.093H116.1H116.106H116.113H116.12H116.126H116.133H116.14H116.146H116.153H116.16H116.166H116.173H116.18H116.186H116.193H116.2H116.206H116.213H116.22H116.226H116.233H116.24H116.246H116.253H116.259H116.266H116.273H116.279H116.286H116.293H116.299H116.306H116.312H116.319H116.326H116.332H116.339H116.345H116.352H116.359H116.365H116.372H116.378H116.385H116.392H116.398H116.405H116.411H116.418H116.424H116.431H116.438H116.444H116.451H116.457H116.464H116.47H116.477H116.483H116.49H116.496H116.503H116.51H116.516H116.523H116.529H116.536H116.542H116.549H116.555H116.562H116.568H116.575H116.581H116.588H116.594H116.601H116.607H116.614H116.62H116.627H116.633H116.64H116.646H116.653H116.659H116.666H116.672H116.679H116.685H116.692H116.698H116.705H116.711H116.717H116.724H116.73H116.737H116.743H116.75H116.756H116.763H116.769H116.776H116.782H116.788H116.795H116.801H116.808H116.814H116.821H116.827H116.833H116.84H116.846H116.853H116.859H116.866H116.872H116.878H116.885H116.891H116.898H116.904H116.91H116.917H116.923H116.93H116.936H116.942H116.949H116.955H116.962H116.968H116.974H116.981H116.987H116.993H117H117.006H117.013H117.019H117.025H117.032H117.038H117.044H117.051H117.057H117.063H117.07H117.076H117.083H117.089H117.095H117.102H117.108H117.114H117.121H117.127H117.133H117.14H117.146H117.152H117.159H117.165H117.171H117.178H117.184H117.19H117.197H117.203H117.209H117.216H117.222H117.228H117.235H117.241H117.247H117.254H117.26H117.266H117.272H117.279H117.285H117.291H117.298H117.304H117.31H117.317H117.323H117.329H117.335H117.342H117.348H117.354H117.361H117.367H117.373H117.379H117.386H117.392H117.398H117.405H117.411H117.417H117.423H117.43H117.436H117.442H117.448H117.455H117.461H117.467H117.474H117.48H117.486H117.492H117.499H117.505H117.511H117.517H117.524H117.53H117.536H117.542H117.549H117.555H117.561H117.567H117.574H117.58H117.586H117.592H117.599H117.605H117.611H117.617H117.624H117.63H117.636H117.642H117.648H117.655H117.661H117.667H117.673H117.68H117.686H117.692H117.698H117.705H117.711H117.717H117.723H117.729H117.736H117.742H117.748H117.754H117.761H117.767H117.773H117.779H117.785H117.792H117.798H117.804H117.81H117.816H117.823H117.829H117.835H117.841H117.847H117.854H117.86H117.866H117.872H117.879H117.885H117.891H117.897H117.903H117.91H117.916H117.922H117.928H117.934H117.94H117.947H117.953H117.959H117.965H117.971H117.978H117.984H117.99H117.996H118.002H118.009H118.015H118.021H118.027H118.033H118.04H118.046H118.052H118.058H118.064H118.07H118.077H118.083H118.089H118.095H118.101H118.108H118.114H118.12H118.126H118.132H118.138H118.145H118.151H118.157H118.163H118.169H118.176H118.182H118.188H118.194H118.2H118.206H118.213H118.219H118.225H118.231H118.237H118.243H118.25H118.256H118.262H118.268H118.274H118.281H118.287H118.293H118.299H118.305H118.311H118.318H118.324H118.33H118.336H118.342H118.348H118.355H118.361H118.367H118.373H118.379H118.385H118.392H118.398H118.404H118.41H118.416H118.422H118.429H118.435H118.441C118.731 59.1309 118.814 59.1969 118.837 59.22C118.864 59.2477 118.922 59.3345 118.93 59.6008V59.6012V59.6028V59.6044V59.606V59.6075V59.6091V59.6107V59.6123V59.6138V59.6154V59.617V59.6186V59.6202V59.6217V59.6233V59.6249V59.6265V59.6281V59.6296V59.6312V59.6328V59.6344V59.636V59.6375V59.6391V59.6407V59.6423V59.6439V59.6454V59.647V59.6486V59.6502V59.6517V59.6533V59.6549V59.6565V59.6581V59.6596V59.6612V59.6628V59.6644V59.666V59.6675V59.6691V59.6707V59.6723V59.6739V59.6754V59.677V59.6786V59.6802V59.6817V59.6833V59.6849V59.6865V59.6881V59.6896V59.6912V59.6928V59.6944V59.696V59.6975V59.6991V59.7007V59.7023V59.7039V59.7054V59.707V59.7086V59.7102V59.7118V59.7133V59.7149V59.7165V59.7181V59.7196V59.7212V59.7228V59.7244V59.726V59.7275V59.7291V59.7307V59.7323V59.7339V59.7354V59.737V59.7386V59.7402V59.7418V59.7433V59.7449V59.7465V59.7481V59.7496V59.7512V59.7528V59.7544V59.756V59.7575V59.7591V59.7607V59.7623V59.7639V59.7654V59.767V59.7686V59.7702V59.7718V59.7733V59.7749V59.7765V59.7781V59.7796V59.7812V59.7828V59.7844V59.786V59.7875V59.7891V59.7907V59.7923V59.7939V59.7954V59.797V59.7986V59.8002V59.8018V59.8033V59.8049V59.8065V59.8081V59.8097V59.8112V59.8128V59.8144V59.816V59.8175V59.8191V59.8207V59.8223V59.8239V59.8254V59.827V59.8286V59.8302V59.8318V59.8333V59.8349V59.8365V59.8381V59.8397V59.8412V59.8428V59.8444V59.846V59.8475V59.8491V59.8507V59.8523V59.8539V59.8554V59.857V59.8586V59.8602V59.8618V59.8633V59.8649V59.8665V59.8681V59.8697V59.8712V59.8728V59.8744V59.876V59.8775V59.8791V59.8807V59.8823V59.8839V59.8854V59.887V59.8886V59.8902V59.8918V59.8933V59.8949V59.8965V59.8981V59.8997V59.9012V59.9028V59.9044V59.906V59.9076V59.9091V59.9107V59.9123V59.9139V59.9154V59.917V59.9186V59.9202V59.9218V59.9233V59.9249V59.9265V59.9281V59.9297V59.9312V59.9328V59.9344V59.936V59.9376V59.9391V59.9407V59.9423V59.9439V59.9454V59.947V59.9486V59.9502V59.9518V59.9533V59.9549V59.9565V59.9581V59.9597V59.9612V59.9628V59.9644V59.966V59.9676V59.9691V59.9707V59.9723V59.9739V59.9754V59.977V59.9786V59.9802V59.9818V59.9833V59.9849V59.9865V59.9881V59.9897V59.9912V59.9928V59.9944V59.996V59.9976V59.9991V60.0007V60.0023V60.0039V60.0055V60.007V60.0086V60.0102V60.0118V60.0133V60.0149V60.0165V60.0181V60.0197V60.0212V60.0228V60.0244V60.026V60.0276V60.0291V60.0307V60.0323V60.0339V60.0355V60.037V60.0386V60.0402V60.0418V60.0433V60.0449V60.0465V60.0481V60.0497V60.0512V60.0528V60.0544V60.056V60.0576V60.0591V60.0607V60.0623V60.0639V60.0655V60.067V60.0686V60.0702V60.0718V60.0733V60.0749V60.0765V60.0781V60.0797V60.0812V60.0828V60.0844V60.086V60.0876V60.0891V60.0907V60.0923V60.0939V60.0955V60.097V60.0986V60.1002V60.1018V60.1034V60.1049V60.1065V60.1081V60.1097V60.1112V60.1128V60.1144V60.116V60.1176V60.1191V60.1207V60.1223V60.1239V60.1255V60.127V60.1286V60.1302V60.1318V60.1334V60.1349V60.1365V60.1381V60.1397V60.1412V60.1428V60.1444V60.146V60.1476V60.1491V60.1507V60.1523V60.1539V60.1555V60.157V60.1586V60.1602V60.1618V60.1634V60.1649V60.1665V60.1681V60.1697V60.1712V60.1728V60.1744V60.176V60.1776V60.1791V60.1807V60.1823V60.1839V60.1855V60.187V60.1886V60.1902V60.1918V60.1934V60.1949V60.1965V60.1981V60.1997V60.2013V60.2028V60.2044V60.206V60.2076V60.2091V60.2107V60.2123V60.2139V60.2155V60.217V60.2186V60.2202V60.2218V60.2234V60.2249V60.2265V60.2281V60.2297V60.2313V60.2328V60.2344V60.236V60.2376V60.2391V60.2407V60.2423V60.2439V60.2455V60.247V60.2486V60.2502V60.2518V60.2534V60.2549V60.2565V60.2581V60.2597V60.2613V60.2628V60.2644V60.266V60.2676V60.2691V60.2707V60.2723V60.2739V60.2755V60.277V60.2786V60.2802V60.2818V60.2834V60.2849V60.2865V60.2881V60.2897V60.2913V60.2928V60.2944V60.296V60.2976V60.2992V60.3007V60.3023V60.3039V60.3055V60.307V60.3086V60.3102V60.3118V60.3134V60.3149V60.3165V60.3181V60.3197V60.3213V60.3228V60.3244V60.326V60.3276V60.3292V60.3307V60.3323V60.3339V60.3355V60.337V60.3386V60.3402V60.3418V60.3434V60.3449V60.3465V60.3481V60.3497V60.3513V60.3528V60.3544V60.356V60.3576V60.3592V60.3607V60.3623V60.3639V60.3655V60.367V60.3686V60.3702V60.3718V60.3734V60.3749V60.3765V60.3781V60.3797V60.3813V60.3828V60.3844V60.386V60.3876V60.3892V60.3907V60.3923V60.3939V60.3955V60.3971V60.3986V60.4002V60.4018V86.2728C118.93 86.754 118.942 87.165 118.998 87.5001C119.053 87.838 119.162 88.1598 119.405 88.4104C119.649 88.6632 119.966 88.7794 120.301 88.8386C120.63 88.897 121.032 88.9095 121.5 88.9095H129.67C130.29 88.9095 130.537 89.0247 130.659 89.1557C130.793 89.2989 130.904 89.5929 130.913 90.2703C130.913 90.8284 130.888 91.243 130.827 91.5564C130.766 91.867 130.677 92.0392 130.578 92.1469C130.482 92.251 130.333 92.342 130.059 92.4058C129.777 92.4714 129.396 92.5004 128.871 92.5004H105.906C105.373 92.4771 104.842 92.4042 104.32 92.2825Z" fill="white" stroke="white"/>
</svg>
